<?xml version="1.0" encoding="utf-8"?>
<!-- Generator: Adobe Illustrator 21.0.0, SVG Export Plug-In . SVG Version: 6.00 Build 0)  -->
<!DOCTYPE svg PUBLIC "-//W3C//DTD SVG 1.1//EN" "http://www.w3.org/Graphics/SVG/1.1/DTD/svg11.dtd">
<svg version="1.1" id="Layer_1" xmlns="http://www.w3.org/2000/svg" xmlns:xlink="http://www.w3.org/1999/xlink" x="0px" y="0px"
	 viewBox="0 0 2666 605" style="enable-background:new 0 0 2666 605;" xml:space="preserve">
<style type="text/css">
	.st0{fill:#497CB1;}
	.st1{fill:#575656;}
</style>
<g id="ZbEY86_3_">
	<g>
		<path class="st0" d="M525.4,67.9c-23.4,19.5-43.3,35.9-64.4,53.4c-35.7-36-79-55.1-130-53.2c-40.2,1.5-76.8,14.4-108.1,40.3
			c-62.1,51.4-70.4,112.5-32.1,212.3c-11.2-19.5-22.3-39-34.2-59.8c-0.2,0-2.6-0.4-4.5,0.4C60.8,303.6,38.2,410.1,96.2,478.9
			C129.7,518.6,174,527.3,223,521c0.6-0.1,1.1-0.2,1.7-0.3c32.3-10.3,63.9-16.8,98.6-6.9c21.4,6.1,39.2-3.5,75-24.7
			c15.5,16.6,31.1,33.2,49.7,53.1c-18.5,6.5-36,15-54.4,18.5c-31.7,6-63.5,3.5-92.3-12.8c-13.8-7.8-25.6-8.1-40.5-2.5
			c-87.9,33-188.9-0.1-233.6-75.5C-34.3,366.5,14.9,230.2,129,189.9c15.8-5.6,22.1-13.9,26.3-29.4C196.9,7.3,384.8-50.8,506,51.6
			C512.1,56.8,518.3,61.9,525.4,67.9z"/>
		<path class="st1" d="M598.1,42c-3.4-9-7-18.5-12-31.8c47.8,12.1,92.5,23.4,139.5,35.2c-18.9,45.6-36.9,89.4-56,135.5
			c-2.9-4.7-4.6-6.9-5.6-9.4c-9.5-22.6-9.5-22.7-32.8-16.6c-42,10.9-82.4,26-118.3,51.1C388.9,292.6,407,442.5,496.1,523.2
			c20.5,18.5,45.9,31.6,67.7,46.3c-56.1-9.4-103.7-37.7-136.5-86.8c-54.7-81.9-58.7-169.3-19-258.2C443.9,144.8,507.8,92.2,583,51.7
			c4-2.2,8.2-4.1,12.2-6.3C596.1,44.8,596.7,43.7,598.1,42z"/>
		<path class="st0" d="M1463.5,334.4c0.5-49.5,9-95.9,41.8-134.5c34.3-40.3,79.8-53.6,130.3-49.1c21.2,1.9,42.5,9.6,62.3,18
			c17.2,7.3,25.7,43.8,15.2,59.2c-1.8,2.6-12.3,2.3-16.6-0.3c-21-12.6-42.2-22.5-67.7-22.8c-39.7-0.5-65.5,18.8-80.7,53.5
			c-17,38.9-17.7,79.8-7.8,120.3c16.5,67.5,77.5,93.2,141.7,61.1c5.7-2.8,11-6.3,16.5-9.4c13.8-7.8,17.9-5.4,18.9,10.9
			c2.2,34.9-2.9,42.7-36.1,55.3c-64.7,24.4-139.6,10.3-179-35C1470.6,424.9,1464.2,380.1,1463.5,334.4z"/>
		<path class="st0" d="M1985.3,507.5c-97.3,2.4-131.7-63.6-122.5-151.4c10.4-99,100.8-146.1,190.5-104.9
			c27.6,12.1,45.5,39.7,53.3,64.7c12.3,39.4,12.9,74.8-0.3,114.1C2088.9,482.2,2048.6,507.5,1985.3,507.5z M2047.8,403.7
			c3.8-19.3,3.9-39.2,0.2-58.5c-1.1-5.6-2.3-11.1-3.9-16.5c-7.7-25.8-26.4-39.2-52.4-40.1c-25.1-0.9-47.9,14.4-57.3,37.8
			c-11.7,29.3-10.9,59.7-2.5,89.6c8.3,29.6,28.1,43.7,56.6,43.4c28-0.3,48.2-15.5,56.5-44.3C2046.1,411.4,2047,407.5,2047.8,403.7z"
			/>
		<path class="st1" d="M1172.7,281c0,35.7,0.9,71.4-0.2,107.1c-1.7,55.6-32.8,98.3-81.6,114.4c-58.3,19.3-122.4,5-155.7-35.2
			c-20-24.2-27.1-53.2-27.4-83.7c-0.7-72,0.1-143.9-0.5-215.9c-0.2-19.6,12.8-17,24.6-17.2c11.7-0.2,23-1.2,22.9,17
			c-0.6,67.9-0.3,135.9-0.2,203.8c0.1,26.4,4.1,51.9,22.6,72.4c27.4,30.3,62.5,30.3,97.4,20.4c30.7-8.7,47.2-33.6,49.1-64.6
			c2.6-44.2,2-88.6,2.4-132.9c0.3-32.2,1.1-64.5-0.3-96.7c-0.8-19.9,11-19.3,24.3-19.5c14-0.2,24.2,0.9,23.4,20.2
			c-1.5,36.8-0.4,73.7-0.4,110.5C1172.9,281,1172.8,281,1172.7,281z"/>
		<path class="st1" d="M1248.9,474.6c0,39.1-0.9,74.1,0.4,109c0.7,18.3-8.1,21.1-23,21c-14.9-0.1-23.1-2.8-23-21.1
			c0.8-106.5,0.7-213,0.1-319.6c-0.1-15.4,5.4-20.1,20-20.1c15.1-0.1,20.3,2.5,21.1,20.9c0.2,4.8,0.5,9.7,0.9,16.9
			c9.7-8,17.4-14.7,25.5-20.8c56-42.4,129.3-19.2,149.4,47.8c13.6,45.4,12.6,91.1-2.8,135.9c-22.8,66.1-101.6,86.8-154.8,41.1
			C1259.2,482.8,1255.7,480.1,1248.9,474.6z M1248.9,374.4c-0.7,37.1,4.8,65.9,37.3,86.3c30.7,19.3,68.3,9.8,82.6-23.4
			c17.9-41.5,17.4-84.1,0.8-125.9c-9.9-25-34.7-36.7-60.6-30.8c-33.8,7.7-60.1,40.4-60.1,74.8C1248.9,361.7,1248.9,368,1248.9,374.4
			z"/>
		<path class="st0" d="M1817.8,317.5c0,54.1-0.6,108.1,0.3,162.2c0.3,17-4.8,23.5-22.2,23.8c-41.4,0.7-41.4,1.4-41.4-39.3
			c0-103.5,0-207.1,0-310.6c0-21.6,2.8-24.4,24.7-25.4c1.7-0.1,3.5-0.1,5.2-0.1c31.1-0.3,33.3,1.8,33.3,32.3
			C1817.8,212.8,1817.8,265.1,1817.8,317.5z"/>
		<path class="st0" d="M624.8,197.7c103.6-7,184.1,58.9,199.8,163.4c13.4,89.5-51.6,180.1-144.2,201.1
			c-91.9,20.8-187.6-33.3-215.9-124.7c63.4,90.8,142.7,120.7,240.7,65.5c62.5-35.2,90.4-111.5,72.9-179.2
			C759.5,252,699,202.2,624.8,197.7z"/>
	</g>
</g>
<path class="st0" d="M2384,479.8c0-0.1,0-0.2,0-0.3c0.6-64.5,0.4-128.9,0.4-193.4c0-42.8-0.3-42.7-43.3-41.1
	c-14.5,0.5-20.3,5.5-20,20.6c0.8,40.9-1.3,81.8,0.9,122.6c1.2,23.1-8,38.1-24.5,51.4c-14.8,11.9-31,18.6-49.5,10.9
	c-18.6-7.8-25.5-24.1-25.9-43.2c-0.8-40.3-1.4-80.5-1.7-120.8c0-44-2.5-41-46.2-41c-0.6,0.1-1.1,0.1-1.7,0.1
	c-10,0.5-14.1,5.7-14,15.6c0.3,55.3-0.9,110.6,1,165.8c1.5,43.1,26.8,73.4,61.7,79.1c32.3,5.2,61.9-0.6,87-23
	c5.9-5.2,11.9-10.3,21.7-18.8c0.2,4.1,0.4,7.6,0.5,10.6l0.3,11.6c0.1,8.7,7.2,15.7,15.9,15.7h21.4c8.8,0,15.9-7.1,15.9-15.9
	L2384,479.8L2384,479.8z"/>
<path class="st0" d="M2665.7,460.8c0.3-102.4,0.2-204.8,0.2-307.2c0-2.3-0.2-4.6-0.1-6.9c0.5-10.8-5-15.9-15.5-16.2
	c-5.8-0.2-11.5-0.6-17.3-0.5c-28.1,0.2-28.6,0.8-28.6,29.2c0,36.2,0,72.3,0,113.7c-8.4-6-12.5-8.7-16.4-11.7
	c-52.6-40.4-121.7-21.4-146.3,40.1c-12.7,31.8-15.4,64.8-12.3,98.4c2.6,27.7,8.6,54.8,26.6,77.3c31.3,39,92,42,135.1,7.2
	c6.4-5.2,12.9-10.1,22.4-17.6l0.8,19.8c0.1,8.7,7.2,15.7,15.9,15.7h19.8c8.8,0,15.5-7.4,15.5-16.2l0-4.8c0-0.3,0.1-0.6,0.1-0.9
	c0-5.1,0-10.2,0-15.3L2665.7,460.8L2665.7,460.8z M2569.5,448.2c-24.6,15.2-55.1,5.9-66.4-20.6c-14.3-33.5-15.6-68.1-1.5-101.7
	c13.4-31.9,47.5-41.5,75.7-21.3c20,14.3,28.8,32.1,28,54l0.4,28.9C2608.1,413.8,2593.6,433.3,2569.5,448.2z"/>
</svg>
